<svg width="17" height="14" viewBox="0 0 17 14" fill="none" xmlns="http://www.w3.org/2000/svg">
<path fill-rule="evenodd" clip-rule="evenodd" d="M10.702 9.98118C10.7203 9.75179 10.9211 9.58066 11.1504 9.59896C12.6145 9.71573 13.8895 9.93084 14.8096 10.2165C15.2667 10.3584 15.6606 10.525 15.949 10.7213C16.2218 10.907 16.5 11.1898 16.5 11.5834C16.5 11.8343 16.3837 12.0428 16.2375 12.2016C16.0933 12.3582 15.9006 12.4892 15.6877 12.601C15.2611 12.8252 14.6711 13.0145 13.977 13.1687C12.5822 13.4787 10.6755 13.6668 8.58334 13.6668C6.49122 13.6668 4.58447 13.4787 3.18965 13.1687C2.49562 13.0145 1.9056 12.8252 1.47893 12.601C1.26603 12.4892 1.07339 12.3582 0.929201 12.2016C0.782949 12.0428 0.666672 11.8343 0.666672 11.5834C0.666672 11.2377 0.88333 10.9773 1.11087 10.7992C1.34498 10.616 1.66207 10.4611 2.02533 10.3282C2.75641 10.0607 3.77249 9.84755 4.95621 9.70454C5.18467 9.67694 5.39224 9.83977 5.41985 10.0682C5.44745 10.2967 5.28462 10.5043 5.05616 10.5319C3.90315 10.6712 2.95781 10.8743 2.31165 11.1108C1.98629 11.2298 1.7608 11.3487 1.6245 11.4554C1.53806 11.5231 1.51064 11.5665 1.50247 11.5837C1.50728 11.5934 1.51825 11.6111 1.54222 11.6371C1.59784 11.6975 1.6999 11.7758 1.86652 11.8633C2.1989 12.038 2.70722 12.2078 3.37043 12.3552C4.69007 12.6485 6.53332 12.8334 8.58334 12.8334C10.6334 12.8334 12.4766 12.6485 13.7963 12.3552C14.4595 12.2078 14.9678 12.038 15.3002 11.8633C15.4668 11.7758 15.5688 11.6975 15.6245 11.6371C15.6482 11.6113 15.6592 11.5937 15.6641 11.584C15.6546 11.5638 15.6174 11.5037 15.4801 11.4102C15.2897 11.2807 14.9849 11.1435 14.5625 11.0123C13.7234 10.7518 12.5153 10.5438 11.0842 10.4297C10.8548 10.4114 10.6837 10.2106 10.702 9.98118ZM1.49943 11.5913L1.49924 11.5922L1.49943 11.5913ZM13.2745 0.455352C13.4372 0.292633 13.7011 0.292633 13.8638 0.455352L16.0849 2.67644L16.0863 2.67785C16.1434 2.73498 16.1805 2.80457 16.1975 2.87788C16.2108 2.93507 16.2118 2.99451 16.2007 3.05206C16.1854 3.13085 16.1473 3.20609 16.0863 3.26711L16.0849 3.26851L13.8638 5.4896C13.7011 5.65232 13.4372 5.65232 13.2745 5.4896C13.1118 5.32688 13.1118 5.06306 13.2745 4.90035L14.7857 3.38914H13.3525C10.7186 3.38914 8.58334 5.52437 8.58334 8.15831V10.6943C8.58334 10.9244 8.39679 11.1109 8.16667 11.1109C7.93655 11.1109 7.75 10.9244 7.75 10.6943V8.15843C7.75 5.06425 10.2583 2.55581 13.3525 2.55581H14.7857L13.2745 1.04461C13.1118 0.881889 13.1118 0.61807 13.2745 0.455352Z" fill="#3B3B3B"/>
</svg>
